<svg id="ewgjE3up04B1" xmlns="http://www.w3.org/2000/svg" xmlns:xlink="http://www.w3.org/1999/xlink" viewBox="0 0 1440 560" shape-rendering="geometricPrecision" text-rendering="geometricPrecision"><defs><linearGradient id="ewgjE3up04B4-fill" x1="220.032" y1="-220.024" x2="1219.968" y2="780.024" spreadMethod="pad" gradientUnits="userSpaceOnUse" gradientTransform="translate(0 0)"><stop id="ewgjE3up04B4-fill-0" offset="4%" stop-color="#111827"/><stop id="ewgjE3up04B4-fill-1" offset="46%" stop-color="#111827"/><stop id="ewgjE3up04B4-fill-2" offset="85%" stop-color="#111827"/><stop id="ewgjE3up04B4-fill-3" offset="96%" stop-color="#111827"/></linearGradient><radialGradient id="ewgjE3up04B364-fill" cx="0" cy="0" r="0.5" spreadMethod="pad" gradientUnits="objectBoundingBox" gradientTransform="translate(0.5 0.5)"><stop id="ewgjE3up04B364-fill-0" offset="10%" stop-color="#fff"/><stop id="ewgjE3up04B364-fill-1" offset="20%" stop-color="#111827"/><stop id="ewgjE3up04B364-fill-2" offset="100%" stop-color="rgba(68,97,221,0)"/></radialGradient><radialGradient id="ewgjE3up04B365-fill" cx="0" cy="0" r="0.5" spreadMethod="pad" gradientUnits="objectBoundingBox" gradientTransform="translate(0.5 0.5)"><stop id="ewgjE3up04B365-fill-0" offset="10%" stop-color="#fff"/><stop id="ewgjE3up04B365-fill-1" offset="20%" stop-color="#111827"/><stop id="ewgjE3up04B365-fill-2" offset="100%" stop-color="rgba(68,97,221,0)"/></radialGradient><radialGradient id="ewgjE3up04B366-fill" cx="0" cy="0" r="0.5" spreadMethod="pad" gradientUnits="objectBoundingBox" gradientTransform="translate(0.5 0.5)"><stop id="ewgjE3up04B366-fill-0" offset="10%" stop-color="#fff"/><stop id="ewgjE3up04B366-fill-1" offset="20%" stop-color="#111827"/><stop id="ewgjE3up04B366-fill-2" offset="100%" stop-color="rgba(68,97,221,0)"/></radialGradient><radialGradient id="ewgjE3up04B367-fill" cx="0" cy="0" r="0.5" spreadMethod="pad" gradientUnits="objectBoundingBox" gradientTransform="translate(0.5 0.5)"><stop id="ewgjE3up04B367-fill-0" offset="10%" stop-color="#fff"/><stop id="ewgjE3up04B367-fill-1" offset="20%" stop-color="#111827"/><stop id="ewgjE3up04B367-fill-2" offset="100%" stop-color="rgba(68,97,221,0)"/></radialGradient><radialGradient id="ewgjE3up04B368-fill" cx="0" cy="0" r="0.5" spreadMethod="pad" gradientUnits="objectBoundingBox" gradientTransform="translate(0.5 0.5)"><stop id="ewgjE3up04B368-fill-0" offset="10%" stop-color="#fff"/><stop id="ewgjE3up04B368-fill-1" offset="20%" stop-color="#111827"/><stop id="ewgjE3up04B368-fill-2" offset="100%" stop-color="rgba(68,97,221,0)"/></radialGradient><radialGradient id="ewgjE3up04B369-fill" cx="0" cy="0" r="0.5" spreadMethod="pad" gradientUnits="objectBoundingBox" gradientTransform="translate(0.5 0.5)"><stop id="ewgjE3up04B369-fill-0" offset="10%" stop-color="#fff"/><stop id="ewgjE3up04B369-fill-1" offset="20%" stop-color="#111827"/><stop id="ewgjE3up04B369-fill-2" offset="100%" stop-color="rgba(68,97,221,0)"/></radialGradient><radialGradient id="ewgjE3up04B370-fill" cx="0" cy="0" r="0.5" spreadMethod="pad" gradientUnits="objectBoundingBox" gradientTransform="translate(0.5 0.5)"><stop id="ewgjE3up04B370-fill-0" offset="10%" stop-color="#fff"/><stop id="ewgjE3up04B370-fill-1" offset="20%" stop-color="#111827"/><stop id="ewgjE3up04B370-fill-2" offset="100%" stop-color="rgba(68,97,221,0)"/></radialGradient></defs><g mask="url(#ewgjE3up04B403)"><g><rect width="1440" height="560" rx="0" ry="0" transform="matrix(1.130208 0 0 1.263643-93.749759-73.82004)" fill="url(#ewgjE3up04B4-fill)"/><path d="M-67.16,393.83v0" fill="none" stroke="#f4ff5f" stroke-width="1.5"/><path d="M-67.16,393.83l-1.17,117.46" fill="none" stroke="#f4ff5f" stroke-width="1.5"/><path d="M-67.16,393.83L64.8,379.64" fill="none" stroke="#f4ff5f" stroke-width="1.5"/><path d="M-67.16,393.83L59.03,509.88" fill="none" stroke="#f4ff5f" stroke-width="1.5"/><path d="M-68.33,511.29v0" fill="none" stroke="#f4ff5f" stroke-width="1.5"/><path d="M-68.33,511.29l127.36-1.41" fill="none" stroke="#f4ff5f" stroke-width="1.5"/><path d="M-68.33,511.29L-97.81,638.82" fill="none" stroke="#f4ff5f" stroke-width="1.5"/><path d="M-97.81,638.82v0" fill="none" stroke="#f4ff5f" stroke-width="1.5"/><path d="M-97.81,638.82l158.47,1.39" fill="none" stroke="#f4ff5f" stroke-width="1.5"/><path d="M-97.81,638.82L59.03,509.88" fill="none" stroke="#f4ff5f" stroke-width="1.5"/><path d="M64.8,379.64v0" fill="none" stroke="#f4ff5f" stroke-width="1.5"/><path d="M64.8,379.64L59.03,509.88" fill="none" stroke="#f4ff5f" stroke-width="1.5"/><path d="M64.8,379.64l141.97-1.77" fill="none" stroke="#f4ff5f" stroke-width="1.5"/><path d="M64.8,379.64L-68.33,511.29" fill="none" stroke="#f4ff5f" stroke-width="1.5"/><path d="M64.8,379.64l141.22,175.5" fill="none" stroke="#f4ff5f" stroke-width="1.5"/><path d="M64.8,379.64L60.66,640.21" fill="none" stroke="#f4ff5f" stroke-width="1.5"/><path d="M59.03,509.88v0" fill="none" stroke="#f4ff5f" stroke-width="1.5"/><path d="M59.03,509.88l1.63,130.33" fill="none" stroke="#f4ff5f" stroke-width="1.5"/><path d="M60.66,640.21v0" fill="none" stroke="#f4ff5f" stroke-width="1.5"/><path d="M60.66,640.21l150.05,66.9" fill="none" stroke="#f4ff5f" stroke-width="1.5"/><path d="M60.66,640.21l145.36-85.07" fill="none" stroke="#f4ff5f" stroke-width="1.5"/><path d="M60.66,640.21L-68.33,511.29" fill="none" stroke="#f4ff5f" stroke-width="1.5"/><path d="M206.77,377.87v0" fill="none" stroke="#f4ff5f" stroke-width="1.5"/><path d="M206.77,377.87l143.1,33.22" fill="none" stroke="#f4ff5f" stroke-width="1.5"/><path d="M206.77,377.87l-.75,177.27" fill="none" stroke="#f4ff5f" stroke-width="1.5"/><path d="M206.77,377.87L59.03,509.88" fill="none" stroke="#f4ff5f" stroke-width="1.5"/><path d="M206.77,377.87L355.33,532.92" fill="none" stroke="#f4ff5f" stroke-width="1.5"/><path d="M206.02,555.14v0" fill="none" stroke="#f4ff5f" stroke-width="1.5"/><path d="M206.02,555.14l149.31-22.22" fill="none" stroke="#f4ff5f" stroke-width="1.5"/><path d="M206.02,555.14l4.69,151.97" fill="none" stroke="#f4ff5f" stroke-width="1.5"/><path d="M210.71,707.11v0" fill="none" stroke="#f4ff5f" stroke-width="1.5"/><path d="M349.87,411.09v0" fill="none" stroke="#f4ff5f" stroke-width="1.5"/><path d="M349.87,411.09l5.46,121.83" fill="none" stroke="#f4ff5f" stroke-width="1.5"/><path d="M349.87,411.09L513.28,527.72" fill="none" stroke="#f4ff5f" stroke-width="1.5"/><path d="M355.33,532.92v0" fill="none" stroke="#f4ff5f" stroke-width="1.5"/><path d="M355.33,532.92l25.66,111.52" fill="none" stroke="#f4ff5f" stroke-width="1.5"/><path d="M380.99,644.44v0" fill="none" stroke="#f4ff5f" stroke-width="1.5"/><path d="M380.99,644.44L520.95,687.9" fill="none" stroke="#f4ff5f" stroke-width="1.5"/><path d="M380.99,644.44L513.28,527.72" fill="none" stroke="#f4ff5f" stroke-width="1.5"/><path d="M380.99,644.44L210.71,707.11" fill="none" stroke="#f4ff5f" stroke-width="1.5"/><path d="M380.99,644.44l-174.97-89.3" fill="none" stroke="#f4ff5f" stroke-width="1.5"/><path d="M380.99,644.44L349.87,411.09" fill="none" stroke="#f4ff5f" stroke-width="1.5"/><path d="M553.94,345.65v0" fill="none" stroke="#f4ff5f" stroke-width="1.5"/><path d="M553.94,345.65l120.69,36.39" fill="none" stroke="#f4ff5f" stroke-width="1.5"/><path d="M553.94,345.65L513.28,527.72" fill="none" stroke="#f4ff5f" stroke-width="1.5"/><path d="M553.94,345.65L681.21,506.29" fill="none" stroke="#f4ff5f" stroke-width="1.5"/><path d="M513.28,527.72v0" fill="none" stroke="#f4ff5f" stroke-width="1.5"/><path d="M513.28,527.72l-157.95,5.2" fill="none" stroke="#f4ff5f" stroke-width="1.5"/><path d="M513.28,527.72l7.67,160.18" fill="none" stroke="#f4ff5f" stroke-width="1.5"/><path d="M513.28,527.72l167.93-21.43" fill="none" stroke="#f4ff5f" stroke-width="1.5"/><path d="M520.95,687.9v0" fill="none" stroke="#f4ff5f" stroke-width="1.5"/><path d="M711.15,209.19v0" fill="none" stroke="#f4ff5f" stroke-width="1.5"/><path d="M711.15,209.19l83.16,152.8" fill="none" stroke="#f4ff5f" stroke-width="1.5"/><path d="M711.15,209.19L674.63,382.04" fill="none" stroke="#f4ff5f" stroke-width="1.5"/><path d="M711.15,209.19L553.94,345.65" fill="none" stroke="#f4ff5f" stroke-width="1.5"/><path d="M711.15,209.19l229.12-3.01" fill="none" stroke="#f4ff5f" stroke-width="1.5"/><path d="M674.63,382.04v0" fill="none" stroke="#f4ff5f" stroke-width="1.5"/><path d="M674.63,382.04l119.68-20.05" fill="none" stroke="#f4ff5f" stroke-width="1.5"/><path d="M674.63,382.04l6.58,124.25" fill="none" stroke="#f4ff5f" stroke-width="1.5"/><path d="M681.21,506.29v0" fill="none" stroke="#f4ff5f" stroke-width="1.5"/><path d="M681.21,506.29l160.4-15.03" fill="none" stroke="#f4ff5f" stroke-width="1.5"/><path d="M681.21,506.29l113.1-144.3" fill="none" stroke="#f4ff5f" stroke-width="1.5"/><path d="M794.31,361.99v0" fill="none" stroke="#f4ff5f" stroke-width="1.5"/><path d="M794.31,361.99l47.3,129.27" fill="none" stroke="#f4ff5f" stroke-width="1.5"/><path d="M841.61,491.26v0" fill="none" stroke="#f4ff5f" stroke-width="1.5"/><path d="M841.61,491.26l130.61-85.99" fill="none" stroke="#f4ff5f" stroke-width="1.5"/><path d="M841.61,491.26l-41.19,193.6" fill="none" stroke="#f4ff5f" stroke-width="1.5"/><path d="M800.42,684.86v0" fill="none" stroke="#f4ff5f" stroke-width="1.5"/><path d="M800.42,684.86l163.52,25.32" fill="none" stroke="#f4ff5f" stroke-width="1.5"/><path d="M800.42,684.86L681.21,506.29" fill="none" stroke="#f4ff5f" stroke-width="1.5"/><path d="M800.42,684.86L520.95,687.9" fill="none" stroke="#f4ff5f" stroke-width="1.5"/><path d="M800.42,684.86l-6.11-322.87" fill="none" stroke="#f4ff5f" stroke-width="1.5"/><path d="M983.58,-74.42v0" fill="none" stroke="#f4ff5f" stroke-width="1.5"/><path d="M983.58,-74.42l112.44,32.73" fill="none" stroke="#f4ff5f" stroke-width="1.5"/><path d="M983.58,-74.42l27.29,140.01" fill="none" stroke="#f4ff5f" stroke-width="1.5"/><path d="M983.58,-74.42L1098.81,95.62" fill="none" stroke="#f4ff5f" stroke-width="1.5"/><path d="M983.58,-74.42l280-2.12" fill="none" stroke="#f4ff5f" stroke-width="1.5"/><path d="M983.58,-74.42l-43.31,280.6" fill="none" stroke="#f4ff5f" stroke-width="1.5"/><path d="M983.58,-74.42l134.28,286.55" fill="none" stroke="#f4ff5f" stroke-width="1.5"/><path d="M1010.87,65.59v0" fill="none" stroke="#f4ff5f" stroke-width="1.5"/><path d="M1010.87,65.59l87.94,30.03" fill="none" stroke="#f4ff5f" stroke-width="1.5"/><path d="M1010.87,65.59l85.15-107.28" fill="none" stroke="#f4ff5f" stroke-width="1.5"/><path d="M1010.87,65.59l-70.6,140.59" fill="none" stroke="#f4ff5f" stroke-width="1.5"/><path d="M940.27,206.18v0" fill="none" stroke="#f4ff5f" stroke-width="1.5"/><path d="M940.27,206.18l177.59,5.95" fill="none" stroke="#f4ff5f" stroke-width="1.5"/><path d="M972.22,405.27v0" fill="none" stroke="#f4ff5f" stroke-width="1.5"/><path d="M972.22,405.27l180.99-7.6" fill="none" stroke="#f4ff5f" stroke-width="1.5"/><path d="M972.22,405.27L794.31,361.99" fill="none" stroke="#f4ff5f" stroke-width="1.5"/><path d="M972.22,405.27L940.27,206.18" fill="none" stroke="#f4ff5f" stroke-width="1.5"/><path d="M972.22,405.27l133.82,155.2" fill="none" stroke="#f4ff5f" stroke-width="1.5"/><path d="M972.22,405.27l145.64-193.14" fill="none" stroke="#f4ff5f" stroke-width="1.5"/><path d="M963.94,710.18v0" fill="none" stroke="#f4ff5f" stroke-width="1.5"/><path d="M963.94,710.18l169.34-49.53" fill="none" stroke="#f4ff5f" stroke-width="1.5"/><path d="M963.94,710.18l142.1-149.71" fill="none" stroke="#f4ff5f" stroke-width="1.5"/><path d="M963.94,710.18L841.61,491.26" fill="none" stroke="#f4ff5f" stroke-width="1.5"/><path d="M963.94,710.18l283.57-9.71" fill="none" stroke="#f4ff5f" stroke-width="1.5"/><path d="M963.94,710.18l8.28-304.91" fill="none" stroke="#f4ff5f" stroke-width="1.5"/><path d="M1096.02,-41.69v0" fill="none" stroke="#f4ff5f" stroke-width="1.5"/><path d="M1098.81,95.62v0" fill="none" stroke="#f4ff5f" stroke-width="1.5"/><path d="M1117.86,212.13v0" fill="none" stroke="#f4ff5f" stroke-width="1.5"/><path d="M1117.86,212.13L1098.81,95.62" fill="none" stroke="#f4ff5f" stroke-width="1.5"/><path d="M1117.86,212.13l175.86,8.46" fill="none" stroke="#f4ff5f" stroke-width="1.5"/><path d="M1153.21,397.67v0" fill="none" stroke="#f4ff5f" stroke-width="1.5"/><path d="M1153.21,397.67l125.54-7.58" fill="none" stroke="#f4ff5f" stroke-width="1.5"/><path d="M1153.21,397.67l117.15,103.92" fill="none" stroke="#f4ff5f" stroke-width="1.5"/><path d="M1106.04,560.47v0" fill="none" stroke="#f4ff5f" stroke-width="1.5"/><path d="M1106.04,560.47l27.24,100.18" fill="none" stroke="#f4ff5f" stroke-width="1.5"/><path d="M1106.04,560.47l47.17-162.8" fill="none" stroke="#f4ff5f" stroke-width="1.5"/><path d="M1106.04,560.47l164.32-58.88" fill="none" stroke="#f4ff5f" stroke-width="1.5"/><path d="M1133.28,660.65v0" fill="none" stroke="#f4ff5f" stroke-width="1.5"/><path d="M1133.28,660.65l114.23,39.82" fill="none" stroke="#f4ff5f" stroke-width="1.5"/><path d="M1263.58,-76.54v0" fill="none" stroke="#f4ff5f" stroke-width="1.5"/><path d="M1263.58,-76.54l28.89,119.57" fill="none" stroke="#f4ff5f" stroke-width="1.5"/><path d="M1292.47,43.03v0" fill="none" stroke="#f4ff5f" stroke-width="1.5"/><path d="M1292.47,43.03l1.25,177.56" fill="none" stroke="#f4ff5f" stroke-width="1.5"/><path d="M1293.72,220.59v0" fill="none" stroke="#f4ff5f" stroke-width="1.5"/><path d="M1293.72,220.59l151.81-9.51" fill="none" stroke="#f4ff5f" stroke-width="1.5"/><path d="M1293.72,220.59l-14.97,169.5" fill="none" stroke="#f4ff5f" stroke-width="1.5"/><path d="M1293.72,220.59l104.02,184.12" fill="none" stroke="#f4ff5f" stroke-width="1.5"/><path d="M1278.75,390.09v0" fill="none" stroke="#f4ff5f" stroke-width="1.5"/><path d="M1278.75,390.09l-8.39,111.5" fill="none" stroke="#f4ff5f" stroke-width="1.5"/><path d="M1278.75,390.09l118.99,14.62" fill="none" stroke="#f4ff5f" stroke-width="1.5"/><path d="M1270.36,501.59v0" fill="none" stroke="#f4ff5f" stroke-width="1.5"/><path d="M1247.51,700.47v0" fill="none" stroke="#f4ff5f" stroke-width="1.5"/><path d="M1247.51,700.47l151.64-41.33" fill="none" stroke="#f4ff5f" stroke-width="1.5"/><path d="M1247.51,700.47l-141.47-140" fill="none" stroke="#f4ff5f" stroke-width="1.5"/><path d="M1247.51,700.47l22.85-198.88" fill="none" stroke="#f4ff5f" stroke-width="1.5"/><path d="M1247.51,700.47l202.64-202.46" fill="none" stroke="#f4ff5f" stroke-width="1.5"/><path d="M1430.08,-99.91v0" fill="none" stroke="#f4ff5f" stroke-width="1.5"/><path d="M1430.08,-99.91l160.52-5.84" fill="none" stroke="#f4ff5f" stroke-width="1.5"/><path d="M1430.08,-99.91l-166.5,23.37" fill="none" stroke="#f4ff5f" stroke-width="1.5"/><path d="M1430.08,-99.91L1292.47,43.03" fill="none" stroke="#f4ff5f" stroke-width="1.5"/><path d="M1445.53,211.08v0" fill="none" stroke="#f4ff5f" stroke-width="1.5"/><path d="M1445.53,211.08l107.16-22.95" fill="none" stroke="#f4ff5f" stroke-width="1.5"/><path d="M1445.53,211.08l-47.79,193.63" fill="none" stroke="#f4ff5f" stroke-width="1.5"/><path d="M1445.53,211.08L1611.95,75.23" fill="none" stroke="#f4ff5f" stroke-width="1.5"/><path d="M1445.53,211.08L1292.47,43.03" fill="none" stroke="#f4ff5f" stroke-width="1.5"/><path d="M1445.53,211.08L1278.75,390.09" fill="none" stroke="#f4ff5f" stroke-width="1.5"/><path d="M1397.74,404.71v0" fill="none" stroke="#f4ff5f" stroke-width="1.5"/><path d="M1397.74,404.71l52.41,93.3" fill="none" stroke="#f4ff5f" stroke-width="1.5"/><path d="M1397.74,404.71l-127.38,96.88" fill="none" stroke="#f4ff5f" stroke-width="1.5"/><path d="M1450.15,498.01v0" fill="none" stroke="#f4ff5f" stroke-width="1.5"/><path d="M1450.15,498.01l150.53,10.02" fill="none" stroke="#f4ff5f" stroke-width="1.5"/><path d="M1450.15,498.01l-51,161.13" fill="none" stroke="#f4ff5f" stroke-width="1.5"/><path d="M1450.15,498.01l-179.79,3.58" fill="none" stroke="#f4ff5f" stroke-width="1.5"/><path d="M1399.15,659.14v0" fill="none" stroke="#f4ff5f" stroke-width="1.5"/><path d="M1590.6,-105.75v0" fill="none" stroke="#f4ff5f" stroke-width="1.5"/><path d="M1590.6,-105.75l21.35,180.98" fill="none" stroke="#f4ff5f" stroke-width="1.5"/><path d="M1590.6,-105.75l-37.91,293.88" fill="none" stroke="#f4ff5f" stroke-width="1.5"/><path d="M1590.6,-105.75l-327.02,29.21" fill="none" stroke="#f4ff5f" stroke-width="1.5"/><path d="M1590.6,-105.75L1292.47,43.03" fill="none" stroke="#f4ff5f" stroke-width="1.5"/><path d="M1590.6,-105.75L1445.53,211.08" fill="none" stroke="#f4ff5f" stroke-width="1.5"/><path d="M1611.95,75.23v0" fill="none" stroke="#f4ff5f" stroke-width="1.5"/><path d="M1611.95,75.23l-59.26,112.9" fill="none" stroke="#f4ff5f" stroke-width="1.5"/><path d="M1611.95,75.23L1430.08,-99.91" fill="none" stroke="#f4ff5f" stroke-width="1.5"/><path d="M1552.69,188.13v0" fill="none" stroke="#f4ff5f" stroke-width="1.5"/><path d="M1612.36,405.58v0" fill="none" stroke="#f4ff5f" stroke-width="1.5"/><path d="M1612.36,405.58l-11.68,102.45" fill="none" stroke="#f4ff5f" stroke-width="1.5"/><path d="M1612.36,405.58l-162.21,92.43" fill="none" stroke="#f4ff5f" stroke-width="1.5"/><path d="M1612.36,405.58l-214.62-.87" fill="none" stroke="#f4ff5f" stroke-width="1.5"/><path d="M1612.36,405.58l-59.67-217.45" fill="none" stroke="#f4ff5f" stroke-width="1.5"/><path d="M1612.36,405.58l-166.83-194.5" fill="none" stroke="#f4ff5f" stroke-width="1.5"/><path d="M1612.36,405.58l-30.23,294.63" fill="none" stroke="#f4ff5f" stroke-width="1.5"/><path d="M1600.68,508.03v0" fill="none" stroke="#f4ff5f" stroke-width="1.5"/><path d="M1600.68,508.03l-18.55,192.18" fill="none" stroke="#f4ff5f" stroke-width="1.5"/><path d="M1600.68,508.03L1397.74,404.71" fill="none" stroke="#f4ff5f" stroke-width="1.5"/><path d="M1600.68,508.03L1399.15,659.14" fill="none" stroke="#f4ff5f" stroke-width="1.5"/><path d="M1582.13,700.21v0" fill="none" stroke="#f4ff5f" stroke-width="1.5"/><path d="M1582.13,700.21l-182.98-41.07" fill="none" stroke="#f4ff5f" stroke-width="1.5"/><path d="M1582.13,700.21l-131.98-202.2" fill="none" stroke="#f4ff5f" stroke-width="1.5"/><circle r="5" transform="translate(-67.16 393.83)" fill="#f4ff5f"/><circle r="5" transform="translate(-68.33 511.29)" fill="#f4ff5f"/><circle r="5" transform="translate(-97.81 638.82)" fill="#f4ff5f"/><circle r="5" transform="translate(64.8 379.64)" fill="#f4ff5f"/><circle r="5" transform="translate(59.03 509.88)" fill="#f4ff5f"/><circle r="5" transform="translate(60.66 640.21)" fill="#f4ff5f"/><circle r="5" transform="translate(206.77 377.87)" fill="#f4ff5f"/><circle r="5" transform="translate(206.02 555.14)" fill="#f4ff5f"/><circle r="5" transform="translate(210.71 707.11)" fill="#f4ff5f"/><circle r="5" transform="translate(349.87 411.09)" fill="#f4ff5f"/><circle r="5" transform="translate(355.33 532.92)" fill="#f4ff5f"/><circle r="5" transform="translate(380.99 644.44)" fill="#f4ff5f"/><circle r="5" transform="translate(553.94 345.65)" fill="#f4ff5f"/><circle r="5" transform="translate(513.28 527.72)" fill="#f4ff5f"/><circle r="5" transform="translate(520.95 687.9)" fill="#f4ff5f"/><circle r="5" transform="translate(711.15 209.19)" fill="#f4ff5f"/><circle r="5" transform="translate(674.63 382.04)" fill="#f4ff5f"/><circle r="5" transform="translate(681.21 506.29)" fill="#f4ff5f"/><circle r="5" transform="translate(794.31 361.99)" fill="#f4ff5f"/><circle r="5" transform="translate(841.61 491.26)" fill="#f4ff5f"/><circle r="5" transform="translate(800.42 684.86)" fill="#f4ff5f"/><circle r="5" transform="translate(983.58-74.42)" fill="#f4ff5f"/><circle r="5" transform="translate(1010.87 65.59)" fill="#f4ff5f"/><circle r="5" transform="translate(940.27 206.18)" fill="#f4ff5f"/><circle r="5" transform="translate(972.22 405.27)" fill="#f4ff5f"/><circle r="5" transform="translate(963.94 710.18)" fill="#f4ff5f"/><circle r="5" transform="translate(1096.02-41.69)" fill="#f4ff5f"/><circle r="5" transform="translate(1098.81 95.62)" fill="#f4ff5f"/><circle r="5" transform="translate(1117.86 212.13)" fill="#f4ff5f"/><circle r="5" transform="translate(1153.21 397.67)" fill="#f4ff5f"/><circle r="5" transform="translate(1106.04 560.47)" fill="#f4ff5f"/><circle r="5" transform="translate(1133.28 660.65)" fill="#f4ff5f"/><circle r="5" transform="translate(1263.58-76.54)" fill="#f4ff5f"/><circle r="5" transform="translate(1292.47 43.03)" fill="#f4ff5f"/><circle r="5" transform="translate(1293.72 220.59)" fill="#f4ff5f"/><circle r="5" transform="translate(1278.75 390.09)" fill="#f4ff5f"/><circle r="5" transform="translate(1270.36 501.59)" fill="#f4ff5f"/><circle r="5" transform="translate(1247.51 700.47)" fill="#f4ff5f"/><circle r="5" transform="translate(1430.08-99.91)" fill="#f4ff5f"/><circle r="5" transform="translate(1445.53 211.08)" fill="#f4ff5f"/><circle r="5" transform="translate(1397.74 404.71)" fill="#f4ff5f"/><circle r="5" transform="translate(1450.15 498.01)" fill="#f4ff5f"/><circle r="5" transform="translate(1399.15 659.14)" fill="#f4ff5f"/><circle r="5" transform="translate(1590.6-105.75)" fill="#f4ff5f"/><circle r="5" transform="translate(1611.95 75.23)" fill="#f4ff5f"/><circle r="5" transform="translate(1552.69 188.13)" fill="#f4ff5f"/><circle r="5" transform="translate(1612.36 405.58)" fill="#f4ff5f"/><circle r="5" transform="translate(1600.68 508.03)" fill="#f4ff5f"/><circle r="5" transform="translate(1582.13 700.21)" fill="#f4ff5f"/><path d="M40.68,558.63v0" fill="none" stroke="#8e9fea" stroke-width="1.5"/><path d="M40.68,558.63l9.88,136.26" fill="none" stroke="#8e9fea" stroke-width="1.5"/><path d="M50.56,694.89v0" fill="none" stroke="#8e9fea" stroke-width="1.5"/><path d="M50.56,694.89L-56.07,703.6" fill="none" stroke="#8e9fea" stroke-width="1.5"/><path d="M386.79,705.25v0" fill="none" stroke="#8e9fea" stroke-width="1.5"/><path d="M386.79,705.25l130.35-13.46" fill="none" stroke="#8e9fea" stroke-width="1.5"/><path d="M386.79,705.25L549.56,538.26" fill="none" stroke="#8e9fea" stroke-width="1.5"/><path d="M386.79,705.25L235.39,512.83" fill="none" stroke="#8e9fea" stroke-width="1.5"/><path d="M386.79,705.25l310.22-6.97" fill="none" stroke="#8e9fea" stroke-width="1.5"/><path d="M827.8,394.95v0" fill="none" stroke="#8e9fea" stroke-width="1.5"/><path d="M827.8,394.95l-12.59,97.92" fill="none" stroke="#8e9fea" stroke-width="1.5"/><path d="M827.8,394.95l135.78,16.18" fill="none" stroke="#8e9fea" stroke-width="1.5"/><path d="M827.8,394.95L670.99,542.89" fill="none" stroke="#8e9fea" stroke-width="1.5"/><path d="M827.8,394.95L971.91,561.14" fill="none" stroke="#8e9fea" stroke-width="1.5"/><path d="M1294.46,-51.8v0" fill="none" stroke="#8e9fea" stroke-width="1.5"/><path d="M1294.46,-51.8L1277.43,65.65" fill="none" stroke="#8e9fea" stroke-width="1.5"/><path d="M1294.46,-51.8l-136.92-26.93" fill="none" stroke="#8e9fea" stroke-width="1.5"/><path d="M1294.46,-51.8l166.96-43.24" fill="none" stroke="#8e9fea" stroke-width="1.5"/><path d="M1294.46,-51.8L1446.21,90.32" fill="none" stroke="#8e9fea" stroke-width="1.5"/><path d="M1303.97,689.77v0" fill="none" stroke="#8e9fea" stroke-width="1.5"/><path d="M1303.97,689.77l-5.55-142.34" fill="none" stroke="#8e9fea" stroke-width="1.5"/><path d="M1303.97,689.77l94.61-144.06" fill="none" stroke="#8e9fea" stroke-width="1.5"/><path d="M1303.97,689.77l-184.55-43.4" fill="none" stroke="#8e9fea" stroke-width="1.5"/><path d="M1303.97,689.77L1150.91,536.62" fill="none" stroke="#8e9fea" stroke-width="1.5"/><path d="M1303.97,689.77l240.37-50.11" fill="none" stroke="#8e9fea" stroke-width="1.5"/><path d="M1393.83,190.47v0" fill="none" stroke="#8e9fea" stroke-width="1.5"/><path d="M1393.83,190.47l52.38-100.15" fill="none" stroke="#8e9fea" stroke-width="1.5"/><path d="M-110.75,551.68v0" fill="none" stroke="#8e9fea" stroke-width="1.5"/><path d="M-110.75,551.68l151.43,6.95" fill="none" stroke="#8e9fea" stroke-width="1.5"/><path d="M-110.75,551.68L-56.07,703.6" fill="none" stroke="#8e9fea" stroke-width="1.5"/><path d="M-56.07,703.6v0" fill="none" stroke="#8e9fea" stroke-width="1.5"/><path d="M-56.07,703.6L40.68,558.63" fill="none" stroke="#8e9fea" stroke-width="1.5"/><path d="M-56.07,703.6L235.39,512.83" fill="none" stroke="#8e9fea" stroke-width="1.5"/><path d="M235.39,512.83v0" fill="none" stroke="#8e9fea" stroke-width="1.5"/><path d="M235.39,512.83L40.68,558.63" fill="none" stroke="#8e9fea" stroke-width="1.5"/><path d="M235.39,512.83L50.56,694.89" fill="none" stroke="#8e9fea" stroke-width="1.5"/><path d="M517.69,404.47v0" fill="none" stroke="#8e9fea" stroke-width="1.5"/><path d="M517.69,404.47l31.87,133.79" fill="none" stroke="#8e9fea" stroke-width="1.5"/><path d="M549.56,538.26v0" fill="none" stroke="#8e9fea" stroke-width="1.5"/><path d="M549.56,538.26l121.43,4.63" fill="none" stroke="#8e9fea" stroke-width="1.5"/><path d="M517.14,691.79v0" fill="none" stroke="#8e9fea" stroke-width="1.5"/><path d="M517.14,691.79l32.42-153.53" fill="none" stroke="#8e9fea" stroke-width="1.5"/><path d="M517.14,691.79l179.87,6.49" fill="none" stroke="#8e9fea" stroke-width="1.5"/><path d="M517.14,691.79l153.85-148.9" fill="none" stroke="#8e9fea" stroke-width="1.5"/><path d="M517.14,691.79l.55-287.32" fill="none" stroke="#8e9fea" stroke-width="1.5"/><path d="M670.99,542.89v0" fill="none" stroke="#8e9fea" stroke-width="1.5"/><path d="M670.99,542.89l144.22-50.02" fill="none" stroke="#8e9fea" stroke-width="1.5"/><path d="M670.99,542.89l26.02,155.39" fill="none" stroke="#8e9fea" stroke-width="1.5"/><path d="M697.01,698.28v0" fill="none" stroke="#8e9fea" stroke-width="1.5"/><path d="M697.01,698.28L858.73,709.8" fill="none" stroke="#8e9fea" stroke-width="1.5"/><path d="M697.01,698.28L549.56,538.26" fill="none" stroke="#8e9fea" stroke-width="1.5"/><path d="M697.01,698.28l118.2-205.41" fill="none" stroke="#8e9fea" stroke-width="1.5"/><path d="M697.01,698.28l281.96-2.1" fill="none" stroke="#8e9fea" stroke-width="1.5"/><path d="M815.21,492.87v0" fill="none" stroke="#8e9fea" stroke-width="1.5"/><path d="M858.73,709.8v0" fill="none" stroke="#8e9fea" stroke-width="1.5"/><path d="M858.73,709.8l120.24-13.62" fill="none" stroke="#8e9fea" stroke-width="1.5"/><path d="M858.73,709.8L971.91,561.14" fill="none" stroke="#8e9fea" stroke-width="1.5"/><path d="M858.73,709.8L815.21,492.87" fill="none" stroke="#8e9fea" stroke-width="1.5"/><path d="M1002.49,234.86v0" fill="none" stroke="#8e9fea" stroke-width="1.5"/><path d="M1002.49,234.86l158.62,7.69" fill="none" stroke="#8e9fea" stroke-width="1.5"/><path d="M1002.49,234.86l107.45,120.08" fill="none" stroke="#8e9fea" stroke-width="1.5"/><path d="M1002.49,234.86L963.58,411.13" fill="none" stroke="#8e9fea" stroke-width="1.5"/><path d="M1002.49,234.86L827.8,394.95" fill="none" stroke="#8e9fea" stroke-width="1.5"/><path d="M1002.49,234.86l259.18-3.96" fill="none" stroke="#8e9fea" stroke-width="1.5"/><path d="M963.58,411.13v0" fill="none" stroke="#8e9fea" stroke-width="1.5"/><path d="M963.58,411.13l8.33,150.01" fill="none" stroke="#8e9fea" stroke-width="1.5"/><path d="M963.58,411.13l146.36-56.19" fill="none" stroke="#8e9fea" stroke-width="1.5"/><path d="M963.58,411.13L815.21,492.87" fill="none" stroke="#8e9fea" stroke-width="1.5"/><path d="M963.58,411.13l187.33,125.49" fill="none" stroke="#8e9fea" stroke-width="1.5"/><path d="M971.91,561.14v0" fill="none" stroke="#8e9fea" stroke-width="1.5"/><path d="M971.91,561.14l7.06,135.04" fill="none" stroke="#8e9fea" stroke-width="1.5"/><path d="M978.97,696.18v0" fill="none" stroke="#8e9fea" stroke-width="1.5"/><path d="M1157.54,-78.73v0" fill="none" stroke="#8e9fea" stroke-width="1.5"/><path d="M1157.54,-78.73L1277.43,65.65" fill="none" stroke="#8e9fea" stroke-width="1.5"/><path d="M1157.54,-78.73l303.88-16.31" fill="none" stroke="#8e9fea" stroke-width="1.5"/><path d="M1157.54,-78.73l3.57,321.28" fill="none" stroke="#8e9fea" stroke-width="1.5"/><path d="M1161.11,242.55v0" fill="none" stroke="#8e9fea" stroke-width="1.5"/><path d="M1161.11,242.55l100.56-11.65" fill="none" stroke="#8e9fea" stroke-width="1.5"/><path d="M1161.11,242.55l-51.17,112.39" fill="none" stroke="#8e9fea" stroke-width="1.5"/><path d="M1161.11,242.55l97.3,123.54" fill="none" stroke="#8e9fea" stroke-width="1.5"/><path d="M1109.94,354.94v0" fill="none" stroke="#8e9fea" stroke-width="1.5"/><path d="M1109.94,354.94l148.47,11.15" fill="none" stroke="#8e9fea" stroke-width="1.5"/><path d="M1150.91,536.62v0" fill="none" stroke="#8e9fea" stroke-width="1.5"/><path d="M1150.91,536.62l-31.49,109.75" fill="none" stroke="#8e9fea" stroke-width="1.5"/><path d="M1150.91,536.62l147.51,10.81" fill="none" stroke="#8e9fea" stroke-width="1.5"/><path d="M1150.91,536.62l-179,24.52" fill="none" stroke="#8e9fea" stroke-width="1.5"/><path d="M1150.91,536.62l-40.97-181.68" fill="none" stroke="#8e9fea" stroke-width="1.5"/><path d="M1150.91,536.62l107.5-170.53" fill="none" stroke="#8e9fea" stroke-width="1.5"/><path d="M1119.42,646.37v0" fill="none" stroke="#8e9fea" stroke-width="1.5"/><path d="M1119.42,646.37L978.97,696.18" fill="none" stroke="#8e9fea" stroke-width="1.5"/><path d="M1119.42,646.37L971.91,561.14" fill="none" stroke="#8e9fea" stroke-width="1.5"/><path d="M1119.42,646.37l179-98.94" fill="none" stroke="#8e9fea" stroke-width="1.5"/><path d="M1119.42,646.37L858.73,709.8" fill="none" stroke="#8e9fea" stroke-width="1.5"/><path d="M1277.43,65.65v0" fill="none" stroke="#8e9fea" stroke-width="1.5"/><path d="M1277.43,65.65L1261.67,230.9" fill="none" stroke="#8e9fea" stroke-width="1.5"/><path d="M1277.43,65.65l168.78,24.67" fill="none" stroke="#8e9fea" stroke-width="1.5"/><path d="M1277.43,65.65l116.4,124.82" fill="none" stroke="#8e9fea" stroke-width="1.5"/><path d="M1261.67,230.9v0" fill="none" stroke="#8e9fea" stroke-width="1.5"/><path d="M1261.67,230.9l-3.26,135.19" fill="none" stroke="#8e9fea" stroke-width="1.5"/><path d="M1261.67,230.9l132.16-40.43" fill="none" stroke="#8e9fea" stroke-width="1.5"/><path d="M1261.67,230.9L1109.94,354.94" fill="none" stroke="#8e9fea" stroke-width="1.5"/><path d="M1258.41,366.09v0" fill="none" stroke="#8e9fea" stroke-width="1.5"/><path d="M1258.41,366.09l168.16,33.4" fill="none" stroke="#8e9fea" stroke-width="1.5"/><path d="M1258.41,366.09l40.01,181.34" fill="none" stroke="#8e9fea" stroke-width="1.5"/><path d="M1298.42,547.43v0" fill="none" stroke="#8e9fea" stroke-width="1.5"/><path d="M1298.42,547.43l100.16-1.72" fill="none" stroke="#8e9fea" stroke-width="1.5"/><path d="M1298.42,547.43l128.15-147.94" fill="none" stroke="#8e9fea" stroke-width="1.5"/><path d="M1461.42,-95.04v0" fill="none" stroke="#8e9fea" stroke-width="1.5"/><path d="M1461.42,-95.04l93.13,13.82" fill="none" stroke="#8e9fea" stroke-width="1.5"/><path d="M1461.42,-95.04L1446.21,90.32" fill="none" stroke="#8e9fea" stroke-width="1.5"/><path d="M1446.21,90.32v0" fill="none" stroke="#8e9fea" stroke-width="1.5"/><path d="M1446.21,90.32l104.95,160.94" fill="none" stroke="#8e9fea" stroke-width="1.5"/><path d="M1446.21,90.32l108.34-171.54" fill="none" stroke="#8e9fea" stroke-width="1.5"/><path d="M1426.57,399.49v0" fill="none" stroke="#8e9fea" stroke-width="1.5"/><path d="M1426.57,399.49l112.18-61.35" fill="none" stroke="#8e9fea" stroke-width="1.5"/><path d="M1426.57,399.49l-27.99,146.22" fill="none" stroke="#8e9fea" stroke-width="1.5"/><path d="M1426.57,399.49l136.93,99.38" fill="none" stroke="#8e9fea" stroke-width="1.5"/><path d="M1398.58,545.71v0" fill="none" stroke="#8e9fea" stroke-width="1.5"/><path d="M1398.58,545.71l164.92-46.84" fill="none" stroke="#8e9fea" stroke-width="1.5"/><path d="M1398.58,545.71l145.76,93.95" fill="none" stroke="#8e9fea" stroke-width="1.5"/><path d="M1398.58,545.71L1258.41,366.09" fill="none" stroke="#8e9fea" stroke-width="1.5"/><path d="M1554.55,-81.22v0" fill="none" stroke="#8e9fea" stroke-width="1.5"/><path d="M1554.55,-81.22L1294.46,-51.8" fill="none" stroke="#8e9fea" stroke-width="1.5"/><path d="M1554.55,-81.22L1277.43,65.65" fill="none" stroke="#8e9fea" stroke-width="1.5"/><path d="M1551.16,251.26v0" fill="none" stroke="#8e9fea" stroke-width="1.5"/><path d="M1551.16,251.26l-12.41,86.88" fill="none" stroke="#8e9fea" stroke-width="1.5"/><path d="M1551.16,251.26l-157.33-60.79" fill="none" stroke="#8e9fea" stroke-width="1.5"/><path d="M1551.16,251.26L1426.57,399.49" fill="none" stroke="#8e9fea" stroke-width="1.5"/><path d="M1551.16,251.26l12.34,247.61" fill="none" stroke="#8e9fea" stroke-width="1.5"/><path d="M1551.16,251.26L1261.67,230.9" fill="none" stroke="#8e9fea" stroke-width="1.5"/><path d="M1538.75,338.14v0" fill="none" stroke="#8e9fea" stroke-width="1.5"/><path d="M1538.75,338.14l24.75,160.73" fill="none" stroke="#8e9fea" stroke-width="1.5"/><path d="M1538.75,338.14L1393.83,190.47" fill="none" stroke="#8e9fea" stroke-width="1.5"/><path d="M1538.75,338.14L1398.58,545.71" fill="none" stroke="#8e9fea" stroke-width="1.5"/><path d="M1563.5,498.87v0" fill="none" stroke="#8e9fea" stroke-width="1.5"/><path d="M1563.5,498.87l-19.16,140.79" fill="none" stroke="#8e9fea" stroke-width="1.5"/><path d="M1544.34,639.66v0" fill="none" stroke="#8e9fea" stroke-width="1.5"/><path d="M1544.34,639.66l-245.92-92.23" fill="none" stroke="#8e9fea" stroke-width="1.5"/><path d="M1544.34,639.66L1426.57,399.49" fill="none" stroke="#8e9fea" stroke-width="1.5"/><path d="M1544.34,639.66l-5.59-301.52" fill="none" stroke="#8e9fea" stroke-width="1.5"/><circle r="25" transform="translate(40.68 558.63)" fill="url(#ewgjE3up04B364-fill)"/><circle r="25" transform="translate(50.56 694.89)" fill="url(#ewgjE3up04B365-fill)"/><circle r="25" transform="translate(386.79 705.25)" fill="url(#ewgjE3up04B366-fill)"/><circle r="25" transform="translate(827.8 394.95)" fill="url(#ewgjE3up04B367-fill)"/><circle r="25" transform="translate(1294.46-51.8)" fill="url(#ewgjE3up04B368-fill)"/><circle r="25" transform="translate(1303.97 689.77)" fill="url(#ewgjE3up04B369-fill)"/><circle r="25" transform="translate(1393.83 190.47)" fill="url(#ewgjE3up04B370-fill)"/><circle r="5" transform="translate(-110.75 551.68)" fill="#fff"/><circle r="5" transform="translate(-56.07 703.6)" fill="#fff"/><circle r="5" transform="translate(235.39 512.83)" fill="#fff"/><circle r="5" transform="translate(517.69 404.47)" fill="#fff"/><circle r="5" transform="translate(549.56 538.26)" fill="#fff"/><circle r="5" transform="translate(517.14 691.79)" fill="#fff"/><circle r="5" transform="translate(670.99 542.89)" fill="#fff"/><circle r="5" transform="translate(697.01 698.28)" fill="#fff"/><circle r="5" transform="translate(815.21 492.87)" fill="#fff"/><circle r="5" transform="translate(858.73 709.8)" fill="#fff"/><circle r="5" transform="translate(1002.49 234.86)" fill="#fff"/><circle r="5" transform="translate(963.58 411.13)" fill="#fff"/><circle r="5" transform="translate(971.91 561.14)" fill="#fff"/><circle r="5" transform="translate(978.97 696.18)" fill="#fff"/><circle r="5" transform="translate(1157.54-78.73)" fill="#fff"/><circle r="5" transform="translate(1161.11 242.55)" fill="#fff"/><circle r="5" transform="translate(1109.94 354.94)" fill="#fff"/><circle r="5" transform="translate(1150.91 536.62)" fill="#fff"/><circle r="5" transform="translate(1119.42 646.37)" fill="#fff"/><circle r="5" transform="translate(1277.43 65.65)" fill="#fff"/><circle r="5" transform="translate(1261.67 230.9)" fill="#fff"/><circle r="5" transform="translate(1258.41 366.09)" fill="#fff"/><circle r="5" transform="translate(1298.42 547.43)" fill="#fff"/><circle r="5" transform="translate(1461.42-95.04)" fill="#fff"/><circle r="5" transform="translate(1446.21 90.32)" fill="#fff"/><circle r="5" transform="translate(1426.57 399.49)" fill="#fff"/><circle r="5" transform="translate(1398.58 545.71)" fill="#fff"/><circle r="5" transform="translate(1554.55-81.22)" fill="#fff"/><circle r="5" transform="translate(1551.16 251.26)" fill="#fff"/><circle r="5" transform="translate(1538.75 338.14)" fill="#fff"/><circle r="5" transform="translate(1563.5 498.87)" fill="#fff"/><circle r="5" transform="translate(1544.34 639.66)" fill="#fff"/></g><mask id="ewgjE3up04B403" mask-type="luminance" x="-150%" y="-150%" height="400%" width="400%"><rect width="1440" height="560" rx="0" ry="0" fill="#fff"/></mask></g></svg>
